#!OML:ASF H:\Terrain\Patient Classification 1\Walking\liu\liu.ASF
:FULLY-SPECIFIED
:DEGREES
295
root 10.6973 17.0437 7.75197 4.88384 -0.447283 2.52281
lowerback -6.31078 -2.4936 -6.00947
upperback 0.0232682 -2.94978 1.79718
thorax 3.96949 -1.60279 4.95967
lowerneck -22.106 -4.47882 -11.5786
upperneck 22.7905 -5.8149 12.6837
head 11.8839 -2.05077 5.76881
rclavicle -1.74185e-014 3.18055e-015
rhumerus -45.0299 12.1289 -87.7351
rradius 37.718
rwrist -20.6582
rhand -28.7415 -26.6085
rfingers 7.12502
rthumb -2.10207 -56.5779
lclavicle -1.74185e-014 3.18055e-015
lhumerus -19.6122 -12.5541 85.9667
lradius 27.0766
lwrist 4.56868
lhand -15.0264 -24.5364
lfingers 7.12502
lthumb 11.1393 5.14794
rfemur -33.7787 3.01872 17.7692
rtibia 35.858
rfoot -20.0606 -11.1296
rtoes -22.1386
lfemur -3.3333 4.07301 -27.5425
ltibia 16.5535
lfoot -17.5005 -0.354652
ltoes -2.55897
296
root 10.7107 17.0415 7.89273 4.75612 0.190394 3.16713
lowerback -6.19601 -2.66406 -6.44616
upperback -0.0628754 -3.14477 1.56183
thorax 3.8516 -1.69931 4.94388
lowerneck -21.7432 -4.51012 -11.568
upperneck 22.9221 -5.87886 12.5518
head 11.8669 -2.10625 5.70788
rclavicle -8.84592e-015 -2.78299e-015
rhumerus -45.3559 11.6006 -87.5911
rradius 37.2579
rwrist -20.0677
rhand -28.6797 -26.9094
rfingers 7.12502
rthumb -2.04237 -56.8793
lclavicle -8.84592e-015 -2.78299e-015
lhumerus -19.6888 -13.0109 86.1452
lradius 27.1971
lwrist 4.64119
lhand -14.955 -24.4251
lfingers 7.12502
lthumb 11.2081 5.25552
rfemur -33.9499 3.03216 16.675
rtibia 34.4839
rfoot -20.4239 -10.5537
rtoes -21.887
lfemur -1.68721 4.45402 -28.1684
ltibia 14.8039
lfoot -17.0825 -1.2757
ltoes -1.83994
297
root 10.6929 17.0403 7.96438 5.34364 0.591167 2.10705
lowerback -5.82883 -2.6964 -5.60003
upperback -0.607835 -3.29239 1.9875
thorax 3.07349 -1.72605 4.92468
lowerneck -21.2537 -4.5822 -11.9137
upperneck 23.0378 -5.9629 12.6745
head 11.8435 -2.17632 5.80605
rclavicle 4.20057e-014 1.19271e-015
rhumerus -45.9789 11.0318 -87.2991
rradius 37.1266
rwrist -19.3934
rhand -28.8981 -26.6671
rfingers 7.12502
rthumb -2.25327 -56.6349
lclavicle 4.20057e-014 1.19271e-015
lhumerus -19.9348 -13.6298 86.4898
lradius 27.325
lwrist 4.94419
lhand -15.1206 -24.4875
lfingers 7.12502
lthumb 11.0485 5.20176
rfemur -35.1384 5.26278 16.9532
rtibia 32.9455
rfoot -21.2475 -11.2868
rtoes -20.5014
lfemur -1.3379 4.41828 -26.8965
ltibia 13.1817
lfoot -16.2254 -1.41028
ltoes -1.70397
298
root 10.7245 17.0442 8.14517 4.96572 0.910728 4.13576
lowerback -5.87241 -2.89608 -7.40895
upperback -0.449678 -3.41565 1.43027
thorax 3.35166 -1.82096 5.34328
lowerneck -21.212 -4.59108 -12.0247
upperneck 23.1229 -5.93404 12.6203
head 11.865 -2.18148 5.81278
rclavicle -6.7711e-015 -5.56597e-015
rhumerus -46.2304 10.858 -87.175
rradius 36.9253
rwrist -19.2955
rhand -29.3819 -25.9268
rfingers 7.12502
rthumb -2.72052 -55.8892
lclavicle -6.7711e-015 -5.56597e-015
lhumerus -20.0154 -13.8585 86.7513
lradius 27.6656
lwrist 5.17398
lhand -15.2914 -24.5768
lfingers 7.12502
lthumb 10.8837 5.12112
rfemur -34.9569 5.14645 14.2165
rtibia 31.8753
rfoot -21.5927 -9.98229
rtoes -20.2248
lfemur 1.03711 4.62056 -29.1335
ltibia 11.1
lfoot -15.97 -1.72308
ltoes -1.99059
299
root 10.7237 17.0584 8.27488 5.10275 0.985467 3.57452
lowerback -6.05976 -2.83597 -6.90339
upperback -0.344348 -3.3596 1.61977
thorax 3.54062 -1.79684 5.25223
lowerneck -21.4301 -4.54623 -11.9132
upperneck 23.0574 -5.83728 12.4866
head 11.8594 -2.13665 5.75454
rclavicle -2.62396e-014 0
rhumerus -46.085 10.9774 -87.2283
rradius 36.5147
rwrist -19.6014
rhand -30.136 -24.5218
rfingers 7.12502
rthumb -3.44879 -54.4736
lclavicle -2.62396e-014 0
lhumerus -19.8804 -14.1523 86.9549
lradius 28.1472
lwrist 5.5254
lhand -15.2809 -24.6141
lfingers 7.12502
lthumb 10.8938 5.08335
rfemur -35.6113 7.16925 13.9247
rtibia 30.6323
rfoot -21.9923 -10.8407
rtoes -20.3069
lfemur 2.39007 4.86535 -28.4575
ltibia 9.03907
lfoot -15.2471 -2.03059
ltoes -0.0513612
300
root 10.7289 17.0566 8.41332 5.3491 1.25813 3.57774
lowerback -6.41359 -2.85919 -6.81875
upperback -0.358798 -3.37084 1.60174
thorax 3.71976 -1.80606 5.16936
lowerneck -21.4247 -4.57831 -11.9208
upperneck 22.9297 -5.90081 12.5983
head 11.8238 -2.15198 5.78331
rclavicle -5.37464e-014 1.15295e-014
rhumerus -46.2363 11.0259 -87.3624
rradius 36.3514
rwrist -19.6154
rhand -29.7641 -26.4026
rfingers 7.12502
rthumb -3.08964 -56.36
lclavicle -5.37464e-014 1.15295e-014
lhumerus -19.9113 -14.3101 87.2081
lradius 28.4412
lwrist 5.4431
lhand -15.2692 -24.7689
lfingers 7.12502
lthumb 10.9051 4.92791
rfemur -36.6881 8.72156 12.9395
rtibia 29.9879
rfoot -22.9103 -11.7495
rtoes -21.5253
lfemur 5.70452 4.84428 -28.3566
ltibia 3.06989
lfoot -12.5264 -2.2813
ltoes 2.49922
301
root 10.729 17.0467 8.55812 5.49747 1.58208 3.87417
lowerback -6.62518 -2.96425 -7.08237
upperback -0.395671 -3.47391 1.52851
thorax 3.82621 -1.8633 5.22103
lowerneck -21.532 -4.72278 -12.0523
upperneck 22.9211 -6.11341 12.8194
head 11.8879 -2.22929 5.85782
rclavicle -1.86112e-014 -2.0276e-014
rhumerus -46.598 11.1158 -87.4262
rradius 36.5118
rwrist -19.0368
rhand -26.1498 -33.4415
rfingers 7.12502
rthumb 0.401042 -63.4209
lclavicle -1.86112e-014 -2.0276e-014
lhumerus -19.938 -14.1963 87.3455
lradius 28.606
lwrist 5.14929
lhand -15.3331 -25.3105
lfingers 7.12502
lthumb 10.8435 4.38954
rfemur -37.471 10.2474 11.6107
rtibia 29.1519
rfoot -24.0595 -12.4538
rtoes -21.8269
lfemur 7.68101 4.76467 -28.59
ltibia 6.36111e-015
lfoot -11.331 -2.46623
ltoes 3.08586
302
root 10.732 17.0409 8.71685 5.41367 1.8408 4.31825
lowerback -6.78805 -3.08948 -7.48554
upperback -0.272114 -3.58999 1.42628
thorax 4.08336 -1.93968 5.31629
lowerneck -21.5149 -4.76259 -12.3042
upperneck 22.7344 -6.15186 13.121
head 11.8404 -2.23312 6.00656
rclavicle 1.22998e-014 1.19271e-015
rhumerus -46.7983 11.5188 -87.5174
rradius 36.3844
rwrist -18.7384
rhand -23.1178 -37.3045
rfingers 7.12502
rthumb 3.32932 -67.2583
lclavicle 1.22998e-014 1.19271e-015
lhumerus -19.9947 -14.5151 87.4976
lradius 28.9774
lwrist 5.6102
lhand -15.4046 -25.5357
lfingers 7.12502
lthumb 10.7745 4.168
rfemur -37.9057 11.5236 10.2774
rtibia 28.5666
rfoot -24.9083 -12.3066
rtoes -19.8008
lfemur 8.35139 4.77385 -28.9608
ltibia -1.11319e-014
lfoot -11.6498 -2.91155
ltoes 4.77086
303
root 10.7374 17.0307 8.8682 5.46089 2.15802 4.80639
lowerback -6.93441 -3.19365 -7.90853
upperback -0.276212 -3.67967 1.33715
thorax 4.19658 -1.99506 5.44295
lowerneck -21.2562 -4.71588 -12.5085
upperneck 22.5862 -6.05521 13.2154
head 11.7282 -2.2046 6.08815
rclavicle 2.88486e-014 -4.77083e-015
rhumerus -46.9059 11.4978 -87.4147
rradius 35.8891
rwrist -18.4583
rhand -22.763 -36.8379
rfingers 7.12502
rthumb 3.67193 -66.786
lclavicle 2.88486e-014 -4.77083e-015
lhumerus -20.3382 -15.112 87.9032
lradius 29.4863
lwrist 6.29843
lhand -15.413 -25.2334
lfingers 7.12502
lthumb 10.7664 4.47067
rfemur -38.4902 12.6462 8.80845
rtibia 28.0215
rfoot -25.479 -12.3344
rtoes -17.4802
lfemur 8.90437 4.70269 -29.3879
ltibia -2.54444e-014
lfoot -11.9381 -3.37567
ltoes 6.71944
304
root 10.737 17.0189 8.98926 5.72477 2.48102 4.8082
lowerback -6.9211 -3.21384 -7.86907
upperback -0.43076 -3.71738 1.38318
thorax 4.03281 -2.00252 5.46965
lowerneck -21.2628 -4.72263 -12.3453
upperneck 22.7125 -6.02634 12.8415
head 11.7524 -2.22159 5.92183
rclavicle 3.44394e-014 -2.38542e-015
rhumerus -46.6927 10.5103 -86.7296
rradius 35.2299
rwrist -16.8604
rhand -21.5571 -36.3548
rfingers 7.12502
rthumb 4.83644 -66.2796
lclavicle 3.44394e-014 -2.38542e-015
lhumerus -20.6495 -15.4497 88.3248
lradius 29.8898
lwrist 6.52076
lhand -15.523 -25.2047
lfingers 7.12502
lthumb 10.6603 4.50491
rfemur -39.477 14.4294 7.45189
rtibia 27.4255
rfoot -26.482 -13.6609
rtoes -18.4356
lfemur 9.04529 4.63098 -29.3163
ltibia -3.02153e-014
lfoot -12.0383 -3.66855
ltoes 7.27613
